<?xml version="1.0" encoding="utf-8"?>
<!-- Generator: Adobe Illustrator 27.1.0, SVG Export Plug-In . SVG Version: 6.00 Build 0)  -->
<svg version="1.1" id="Capa_1" xmlns="http://www.w3.org/2000/svg" xmlns:xlink="http://www.w3.org/1999/xlink" x="0px" y="0px"
	 viewBox="0 0 1024 1024" style="enable-background:new 0 0 1024 1024;" xml:space="preserve">
<style type="text/css">
	.st0{fill:#001B36;stroke:#000000;stroke-miterlimit:10;}
	
		.st1{clip-path:url(#SVGID_00000045621135795367221060000005109972499104947359_);fill:#AAAAAA;stroke:#000000;stroke-miterlimit:10;}
	
		.st2{opacity:0.12;clip-path:url(#SVGID_00000045621135795367221060000005109972499104947359_);fill:none;stroke:#FFFFFF;stroke-width:47;stroke-miterlimit:10;}
	
		.st3{clip-path:url(#SVGID_00000045621135795367221060000005109972499104947359_);fill:none;stroke:#000000;stroke-width:30;stroke-miterlimit:10;}
	.st4{fill:#FFFFFF;stroke:#000000;stroke-miterlimit:10;}
</style>
<g>
	<path class="st0" d="M966.8,737.7c-151.4,0-302.8,0-454.2,0c-151.8,0-303.5,0-455.3,0c-2.5,0-15.7-0.2-26.3-10.9
		c-6.7-6.7-10.9-16-10.9-26.3V350c0-20.6,16.7-37.2,37.2-37.2h909.5c20.6,0,37.2,16.7,37.2,37.2v350.5
		C1004,721,987.3,737.7,966.8,737.7z"/>
	<g>
		<defs>
			<path id="SVGID_1_" d="M966.8,737.7c-151.4,0-302.8,0-454.2,0c-151.8,0-303.5,0-455.3,0c-2.5,0-15.7-0.2-26.3-10.9
				c-6.7-6.7-10.9-16-10.9-26.3V350c0-20.6,16.7-37.2,37.2-37.2h909.5c20.6,0,37.2,16.7,37.2,37.2v350.5
				C1004,721,987.3,737.7,966.8,737.7z"/>
		</defs>
		<clipPath id="SVGID_00000011004677162682543320000011175987129853416590_">
			<use xlink:href="#SVGID_1_"  style="overflow:visible;"/>
		</clipPath>
		
			<path style="clip-path:url(#SVGID_00000011004677162682543320000011175987129853416590_);fill:#AAAAAA;stroke:#000000;stroke-miterlimit:10;" d="
			M585.9,627.6H449.1c-31.9,31.9-49.7,49.7-81.6,81.6v28.1c0,0.2,0.2,0.4,0.4,0.4h299.2c0.2,0,0.4-0.2,0.4-0.4v-28.1
			C635.6,677.3,617.8,659.5,585.9,627.6z"/>
		
			<path style="opacity:0.12;clip-path:url(#SVGID_00000011004677162682543320000011175987129853416590_);fill:none;stroke:#FFFFFF;stroke-width:47;stroke-miterlimit:10;" d="
			M911.7,782.1c-131.5,0-263,0-394.4,0c-131.8,0-263.6,0-395.4,0c-2.2,0-13.6-0.2-22.9-9.9c-5.9-6.1-9.5-14.6-9.5-23.9V430
			c0-18.7,14.5-33.8,32.3-33.8h789.8c17.9,0,32.3,15.1,32.3,33.8v318.3C944.1,767,929.6,782.1,911.7,782.1z"/>
		
			<path style="clip-path:url(#SVGID_00000011004677162682543320000011175987129853416590_);fill:none;stroke:#000000;stroke-width:30;stroke-miterlimit:10;" d="
			M931.9,752.9c-139.9,0-279.8,0-419.7,0c-140.2,0-280.4,0-420.7,0c-2.3,0-14.5-0.2-24.3-9.9c-6.2-6.1-10.1-14.6-10.1-23.9V400.8
			c0-18.7,15.4-33.8,34.4-33.8h840.4c19,0,34.4,15.1,34.4,33.8v318.3C966.3,737.8,950.9,752.9,931.9,752.9z"/>
	</g>
	<g>
		<circle class="st4" cx="251" cy="547" r="138.7"/>
		<circle class="st4" cx="773" cy="547" r="138.7"/>
	</g>
</g>
</svg>
